ffmpeg version 3.4.8-0ubuntu0.2 Copyright (c) 2000-2020 the FFmpeg developers
  built with gcc 7 (Ubuntu 7.5.0-3ubuntu1~18.04)
  configuration: --prefix=/usr --extra-version=0ubuntu0.2 --toolchain=hardened --libdir=/usr/lib/x86_64-linux-gnu --incdir=/usr/include/x86_64-linux-gnu --enable-gpl --disable-stripping --enable-avresample --enable-avisynth --enable-gnutls --enable-ladspa --enable-libass --enable-libbluray --enable-libbs2b --enable-libcaca --enable-libcdio --enable-libflite --enable-libfontconfig --enable-libfreetype --enable-libfribidi --enable-libgme --enable-libgsm --enable-libmp3lame --enable-libmysofa --enable-libopenjpeg --enable-libopenmpt --enable-libopus --enable-libpulse --enable-librubberband --enable-librsvg --enable-libshine --enable-libsnappy --enable-libsoxr --enable-libspeex --enable-libssh --enable-libtheora --enable-libtwolame --enable-libvorbis --enable-libvpx --enable-libwavpack --enable-libwebp --enable-libx265 --enable-libxml2 --enable-libxvid --enable-libzmq --enable-libzvbi --enable-omx --enable-openal --enable-opengl --enable-sdl2 --enable-libdc1394 --enable-libdrm --enable-libiec61883 --enable-chromaprint --enable-frei0r --enable-libopencv --enable-libx264 --enable-shared
  libavutil      55. 78.100 / 55. 78.100
  libavcodec     57.107.100 / 57.107.100
  libavformat    57. 83.100 / 57. 83.100
  libavdevice    57. 10.100 / 57. 10.100
  libavfilter     6.107.100 /  6.107.100
  libavresample   3.  7.  0 /  3.  7.  0
  libswscale      4.  8.100 /  4.  8.100
  libswresample   2.  9.100 /  2.  9.100
  libpostproc    54.  7.100 / 54.  7.100
[rawvideo @ 0x55c529d03a20] Estimating duration from bitrate, this may be inaccurate
Input #0, rawvideo, from '../../SVC-Encoder-20220109T061506Z-001/SVC-Encoder/Dataset/RollerCoaster/ERP_8x8/tile_yuv/Tile_25_480x240.yuv':
  Duration: 00:00:10.00, start: 0.000000, bitrate: 41472 kb/s
    Stream #0:0: Video: rawvideo (I420 / 0x30323449), yuv420p, 480x240, 41472 kb/s, 30 tbr, 30 tbn, 30 tbc
Stream mapping:
  Stream #0:0 -> #0:0 (rawvideo (native) -> h264 (libx264))
Press [q] to stop, [?] for help
[libx264 @ 0x55c529d10c60] using cpu capabilities: MMX2 SSE2Fast LZCNT SSSE3 SSE4.2 AVX
[libx264 @ 0x55c529d10c60] profile High, level 2.1
Output #0, rawvideo, to 'RollerCoaster_Tile_25_480x240_x264_QP_40.h264':
  Metadata:
    encoder         : Lavf57.83.100
    Stream #0:0: Video: h264 (libx264), yuv420p, 480x240, q=-1--1, 30 fps, 30 tbn, 30 tbc
    Metadata:
      encoder         : Lavc57.107.100 libx264
    Side data:
      cpb: bitrate max/min/avg: 0/0/0 buffer size: 0 vbv_delay: -1
frame=  220 fps=0.0 q=46.0 PSNR=Y:nan U:nan V:nan *:nan size=      28kB time=00:00:05.90 bitrate=  38.9kbits/s speed=11.8x    frame=  300 fps=0.0 q=46.0 LPSNR=Y:inf U:inf V:inf *:inf size=      43kB time=00:00:09.93 bitrate=  35.1kbits/s speed=14.3x    
video:43kB audio:0kB subtitle:0kB other streams:0kB global headers:0kB muxing overhead: 0.000000%
[libx264 @ 0x55c529d10c60] frame I:2     Avg QP:37.60  size:  3226  PSNR Mean Y:31.62 U:41.92 V:44.47 Avg:33.22 Global:33.10
[libx264 @ 0x55c529d10c60] frame P:76    Avg QP:39.53  size:   292  PSNR Mean Y:30.42 U:42.16 V:43.52 Avg:32.06 Global:32.04
[libx264 @ 0x55c529d10c60] frame B:222   Avg QP:45.44  size:    67  PSNR Mean Y:30.26 U:42.10 V:43.46 Avg:31.90 Global:31.88
[libx264 @ 0x55c529d10c60] consecutive B-frames:  1.0%  0.7%  1.0% 97.3%
[libx264 @ 0x55c529d10c60] mb I  I16..4: 34.8% 57.3%  7.9%
[libx264 @ 0x55c529d10c60] mb P  I16..4:  0.2%  0.1%  0.0%  P16..4: 26.4%  2.2%  0.3%  0.0%  0.0%    skip:70.8%
[libx264 @ 0x55c529d10c60] mb B  I16..4:  0.0%  0.0%  0.0%  B16..8: 11.0%  0.0%  0.0%  direct: 0.0%  skip:88.9%  L0:37.2% L1:62.7% BI: 0.0%
[libx264 @ 0x55c529d10c60] 8x8 transform intra:54.5% inter:83.3%
[libx264 @ 0x55c529d10c60] coded y,uvDC,uvAC intra: 43.3% 28.9% 0.7% inter: 0.8% 0.4% 0.0%
[libx264 @ 0x55c529d10c60] i16 v,h,dc,p: 24% 35% 31% 10%
[libx264 @ 0x55c529d10c60] i8 v,h,dc,ddl,ddr,vr,hd,vl,hu:  3%  9% 41%  4%  7%  4% 16% 11%  5%
[libx264 @ 0x55c529d10c60] i4 v,h,dc,ddl,ddr,vr,hd,vl,hu:  8% 15% 27%  6% 13%  3% 19%  6%  2%
[libx264 @ 0x55c529d10c60] i8c dc,h,v,p: 82%  9%  6%  3%
[libx264 @ 0x55c529d10c60] Weighted P-Frames: Y:1.3% UV:0.0%
[libx264 @ 0x55c529d10c60] ref P L0: 69.3%  9.6% 15.6%  5.4%  0.1%
[libx264 @ 0x55c529d10c60] ref B L0: 66.3% 31.9%  1.8%
[libx264 @ 0x55c529d10c60] ref B L1: 69.0% 31.0%
[libx264 @ 0x55c529d10c60] PSNR Mean Y:30.311 U:42.118 V:43.480 Avg:31.949 Global:31.924 kb/s:34.88
